<mxfile host="app.diagrams.net" agent="Mozilla/5.0 (Windows NT 10.0; Win64; x64) AppleWebKit/537.36 (KHTML, like Gecko) Chrome/136.0.0.0 Safari/537.36" version="27.0.6">
  <diagram name="Página-1" id="NfhQ_CiL9qwO_JdaQRNy">
    <mxGraphModel dx="2084" dy="1262" grid="0" gridSize="10" guides="1" tooltips="1" connect="1" arrows="1" fold="1" page="1" pageScale="1" pageWidth="827" pageHeight="1169" math="0" shadow="0">
      <root>
        <mxCell id="0" />
        <mxCell id="1" parent="0" />
        <mxCell id="JKRDZms4e6L6lVvPqIm0-1" value="" style="rounded=0;whiteSpace=wrap;html=1;" vertex="1" parent="1">
          <mxGeometry x="69" y="114" width="585" height="404" as="geometry" />
        </mxCell>
        <mxCell id="JKRDZms4e6L6lVvPqIm0-3" value="&lt;h1&gt;&lt;b&gt;Qué es un framework cockpit?&lt;/b&gt;&lt;/h1&gt;" style="text;html=1;align=center;verticalAlign=middle;whiteSpace=wrap;rounded=0;" vertex="1" parent="1">
          <mxGeometry x="69" y="66" width="422" height="21" as="geometry" />
        </mxCell>
        <mxCell id="JKRDZms4e6L6lVvPqIm0-4" value="Actor" style="shape=umlActor;verticalLabelPosition=bottom;verticalAlign=top;html=1;outlineConnect=0;" vertex="1" parent="1">
          <mxGeometry x="118" y="150" width="30" height="60" as="geometry" />
        </mxCell>
        <mxCell id="JKRDZms4e6L6lVvPqIm0-9" value="" style="edgeStyle=orthogonalEdgeStyle;rounded=0;orthogonalLoop=1;jettySize=auto;html=1;" edge="1" parent="1" source="JKRDZms4e6L6lVvPqIm0-7" target="JKRDZms4e6L6lVvPqIm0-8">
          <mxGeometry relative="1" as="geometry" />
        </mxCell>
        <mxCell id="JKRDZms4e6L6lVvPqIm0-12" style="edgeStyle=orthogonalEdgeStyle;rounded=0;orthogonalLoop=1;jettySize=auto;html=1;" edge="1" parent="1" source="JKRDZms4e6L6lVvPqIm0-7" target="JKRDZms4e6L6lVvPqIm0-10">
          <mxGeometry relative="1" as="geometry" />
        </mxCell>
        <mxCell id="JKRDZms4e6L6lVvPqIm0-13" style="edgeStyle=orthogonalEdgeStyle;rounded=0;orthogonalLoop=1;jettySize=auto;html=1;" edge="1" parent="1" source="JKRDZms4e6L6lVvPqIm0-7" target="JKRDZms4e6L6lVvPqIm0-11">
          <mxGeometry relative="1" as="geometry" />
        </mxCell>
        <mxCell id="JKRDZms4e6L6lVvPqIm0-7" value="Un usuario tiene muchos trabajos a hacer en Cockpit" style="rounded=1;whiteSpace=wrap;html=1;align=left;" vertex="1" parent="1">
          <mxGeometry x="206" y="145" width="300" height="70" as="geometry" />
        </mxCell>
        <mxCell id="JKRDZms4e6L6lVvPqIm0-8" value="Manejar Usuarios" style="rounded=1;whiteSpace=wrap;html=1;align=center;" vertex="1" parent="1">
          <mxGeometry x="165" y="262" width="120" height="38" as="geometry" />
        </mxCell>
        <mxCell id="JKRDZms4e6L6lVvPqIm0-10" value="Manejar Productos" style="rounded=1;whiteSpace=wrap;html=1;align=center;" vertex="1" parent="1">
          <mxGeometry x="299" y="262" width="120" height="38" as="geometry" />
        </mxCell>
        <mxCell id="JKRDZms4e6L6lVvPqIm0-11" value="Manejar Promociones" style="rounded=1;whiteSpace=wrap;html=1;align=center;" vertex="1" parent="1">
          <mxGeometry x="437" y="262" width="130" height="38" as="geometry" />
        </mxCell>
        <mxCell id="JKRDZms4e6L6lVvPqIm0-15" value="&lt;h1 style=&quot;margin-top: 0px;&quot;&gt;Pero cuál es la mejor forma de organizar su experiencia?&lt;/h1&gt;&lt;p&gt;A esto se refiere el Framework Cockpit.&lt;br&gt;Es como crear el mapa de la ciudad de Cockpit. Es decir, enseñar los usuarios dónde están sus productos. Cómo caminar por el producto como un todo.&lt;/p&gt;" style="text;html=1;whiteSpace=wrap;overflow=hidden;rounded=0;" vertex="1" parent="1">
          <mxGeometry x="168" y="340" width="455" height="120" as="geometry" />
        </mxCell>
        <mxCell id="JKRDZms4e6L6lVvPqIm0-16" value="" style="rounded=0;whiteSpace=wrap;html=1;" vertex="1" parent="1">
          <mxGeometry x="771" y="114" width="585" height="404" as="geometry" />
        </mxCell>
        <mxCell id="JKRDZms4e6L6lVvPqIm0-17" value="&lt;h1 style=&quot;margin-top: 0px;&quot;&gt;Dónde viverán los módulos?&lt;/h1&gt;&lt;div&gt;Un listado en la izquierda?&lt;/div&gt;&lt;div&gt;&lt;br&gt;Qué tipo de onboarding necesitamos?&lt;br&gt;&lt;br&gt;Deberíamos tener una biblioteca de &quot;apps&quot;? Como una tienda de aplicativos?&lt;br&gt;&lt;br&gt;&lt;br&gt;&lt;/div&gt;" style="text;html=1;whiteSpace=wrap;overflow=hidden;rounded=0;" vertex="1" parent="1">
          <mxGeometry x="807" y="140" width="455" height="120" as="geometry" />
        </mxCell>
        <mxCell id="JKRDZms4e6L6lVvPqIm0-18" value="" style="rounded=0;whiteSpace=wrap;html=1;" vertex="1" parent="1">
          <mxGeometry x="69" y="591" width="585" height="404" as="geometry" />
        </mxCell>
        <mxCell id="JKRDZms4e6L6lVvPqIm0-20" value="" style="rounded=0;whiteSpace=wrap;html=1;" vertex="1" parent="1">
          <mxGeometry x="774" y="591" width="585" height="404" as="geometry" />
        </mxCell>
        <mxCell id="JKRDZms4e6L6lVvPqIm0-19" value="&lt;h1 style=&quot;margin-top: 0px;&quot;&gt;Qué deberá ver aquí?&lt;/h1&gt;&lt;div&gt;Esta pantalla blanca deve transmitir qué?&lt;/div&gt;" style="text;html=1;whiteSpace=wrap;overflow=hidden;rounded=0;" vertex="1" parent="1">
          <mxGeometry x="145" y="733" width="455" height="120" as="geometry" />
        </mxCell>
        <mxCell id="JKRDZms4e6L6lVvPqIm0-22" value="&lt;span style=&quot;white-space: pre;&quot;&gt;&#x9;&lt;/span&gt;cockpit.juntos.com" style="rounded=0;whiteSpace=wrap;html=1;align=left;" vertex="1" parent="1">
          <mxGeometry x="786" y="610" width="553" height="23" as="geometry" />
        </mxCell>
        <mxCell id="JKRDZms4e6L6lVvPqIm0-23" value="&lt;h1 style=&quot;margin-top: 0px;&quot;&gt;Biblioteca de Apps&lt;/h1&gt;" style="text;html=1;whiteSpace=wrap;overflow=hidden;rounded=0;" vertex="1" parent="1">
          <mxGeometry x="786" y="683" width="455" height="39" as="geometry" />
        </mxCell>
        <mxCell id="JKRDZms4e6L6lVvPqIm0-24" value="Búsqueda" style="rounded=0;whiteSpace=wrap;html=1;align=left;" vertex="1" parent="1">
          <mxGeometry x="787" y="738" width="100" height="23" as="geometry" />
        </mxCell>
        <mxCell id="JKRDZms4e6L6lVvPqIm0-26" value="Identity Admin" style="rounded=0;whiteSpace=wrap;html=1;align=center;" vertex="1" parent="1">
          <mxGeometry x="787" y="768" width="136" height="75" as="geometry" />
        </mxCell>
        <mxCell id="JKRDZms4e6L6lVvPqIm0-33" value="&lt;span style=&quot;color: rgb(0, 0, 0); font-family: Helvetica; font-size: 12px; font-style: normal; font-variant-ligatures: normal; font-variant-caps: normal; font-weight: 400; letter-spacing: normal; orphans: 2; text-align: left; text-indent: 0px; text-transform: none; widows: 2; word-spacing: 0px; -webkit-text-stroke-width: 0px; white-space: normal; background-color: rgb(236, 236, 236); text-decoration-thickness: initial; text-decoration-style: initial; text-decoration-color: initial; float: none; display: inline !important;&quot;&gt;Home &amp;gt; Biblioteca&lt;/span&gt;" style="text;whiteSpace=wrap;html=1;" vertex="1" parent="1">
          <mxGeometry x="787" y="640" width="108.11" height="36" as="geometry" />
        </mxCell>
        <mxCell id="JKRDZms4e6L6lVvPqIm0-34" value="" style="html=1;verticalLabelPosition=bottom;align=center;labelBackgroundColor=#ffffff;verticalAlign=top;strokeWidth=1;strokeColor=#0080F0;shadow=0;dashed=0;shape=mxgraph.ios7.icons.user;" vertex="1" parent="1">
          <mxGeometry x="791" y="772.5" width="13" height="12.5" as="geometry" />
        </mxCell>
        <mxCell id="JKRDZms4e6L6lVvPqIm0-35" value="&lt;font style=&quot;font-size: 6px;&quot;&gt;&lt;span style=&quot;color: rgb(0, 0, 0); font-family: Helvetica; font-style: normal; font-variant-ligatures: normal; font-variant-caps: normal; font-weight: 400; letter-spacing: normal; orphans: 2; text-align: left; text-indent: 0px; text-transform: none; widows: 2; word-spacing: 0px; -webkit-text-stroke-width: 0px; white-space: normal; background-color: rgb(236, 236, 236); text-decoration-thickness: initial; text-decoration-style: initial; text-decoration-color: initial; float: none; display: inline !important;&quot;&gt;&lt;font style=&quot;&quot;&gt;Gerencie los usuários de Cockpi&lt;/font&gt;&lt;/span&gt;&lt;span style=&quot;color: rgb(0, 0, 0); font-family: Helvetica; font-style: normal; font-variant-ligatures: normal; font-variant-caps: normal; font-weight: 400; letter-spacing: normal; orphans: 2; text-align: left; text-indent: 0px; text-transform: none; widows: 2; word-spacing: 0px; -webkit-text-stroke-width: 0px; white-space: normal; background-color: rgb(236, 236, 236); text-decoration-thickness: initial; text-decoration-style: initial; text-decoration-color: initial; float: none; display: inline !important;&quot;&gt;t&lt;/span&gt;&lt;/font&gt;" style="text;whiteSpace=wrap;html=1;" vertex="1" parent="1">
          <mxGeometry x="810" y="804" width="95" height="29" as="geometry" />
        </mxCell>
        <mxCell id="JKRDZms4e6L6lVvPqIm0-36" value="Product Information Management" style="rounded=0;whiteSpace=wrap;html=1;align=center;" vertex="1" parent="1">
          <mxGeometry x="940" y="768" width="136" height="75" as="geometry" />
        </mxCell>
        <mxCell id="JKRDZms4e6L6lVvPqIm0-38" value="&lt;font style=&quot;font-size: 6px;&quot;&gt;&lt;span style=&quot;color: rgb(0, 0, 0); font-family: Helvetica; font-style: normal; font-variant-ligatures: normal; font-variant-caps: normal; font-weight: 400; letter-spacing: normal; orphans: 2; text-align: left; text-indent: 0px; text-transform: none; widows: 2; word-spacing: 0px; -webkit-text-stroke-width: 0px; white-space: normal; background-color: rgb(236, 236, 236); text-decoration-thickness: initial; text-decoration-style: initial; text-decoration-color: initial; float: none; display: inline !important;&quot;&gt;&lt;font style=&quot;&quot;&gt;Gerencie información de productos&lt;/font&gt;&lt;/span&gt;&lt;/font&gt;" style="text;whiteSpace=wrap;html=1;" vertex="1" parent="1">
          <mxGeometry x="954" y="811" width="100.5" height="22" as="geometry" />
        </mxCell>
        <mxCell id="JKRDZms4e6L6lVvPqIm0-39" value="" style="html=1;verticalLabelPosition=bottom;align=center;labelBackgroundColor=#ffffff;verticalAlign=top;strokeWidth=1;strokeColor=#0080F0;shadow=0;dashed=0;shape=mxgraph.ios7.icons.bookmark;" vertex="1" parent="1">
          <mxGeometry x="945" y="774" width="9" height="11" as="geometry" />
        </mxCell>
      </root>
    </mxGraphModel>
  </diagram>
</mxfile>
